<svg width="114" height="160" viewBox="0 0 114 160" fill="none" xmlns="http://www.w3.org/2000/svg">
<path d="M96.0309 76.0856L54.4481 25.0214C54.129 24.6321 53.7217 24.4141 53.2925 24.4141H43.5517C42.7372 24.4141 42.363 25.8468 42.9793 26.5943L81.5243 73.9366H17.1139C16.6296 73.9366 16.2334 74.4972 16.2334 75.1824V84.5263C16.2334 85.2115 16.6296 85.7721 17.1139 85.7721H81.5133L42.9683 133.114C42.3519 133.877 42.7262 135.295 43.5407 135.295H53.6116C53.8208 135.295 54.0299 135.186 54.184 134.983L96.0309 83.623C96.4119 83.1542 96.7174 82.5752 96.9268 81.9251C97.1362 81.2749 97.2445 80.5688 97.2445 79.8543C97.2445 79.1399 97.1362 78.4338 96.9268 77.7836C96.7174 77.1335 96.4119 76.5545 96.0309 76.0856Z" fill="white"/>
</svg>
