<svg width="133" height="137" viewBox="0 0 133 137" fill="none" xmlns="http://www.w3.org/2000/svg">
<path fill-rule="evenodd" clip-rule="evenodd" d="M123.866 17.8516C123.866 15.5944 123 13.4297 121.458 11.8337C119.917 10.2376 117.827 9.34095 115.647 9.34095H17.0296C14.85 9.34095 12.7597 10.2376 11.2185 11.8337C9.67725 13.4297 8.81141 15.5944 8.81141 17.8516V119.979C8.81141 122.236 9.67725 124.401 11.2185 125.997C12.7597 127.593 14.85 128.49 17.0296 128.49H115.647C117.827 128.49 119.917 127.593 121.458 125.997C123 124.401 123.866 122.236 123.866 119.979V17.8516ZM0.593262 17.8516C0.593262 13.3373 2.32494 9.00784 5.40734 5.81573C8.48975 2.62363 12.6704 0.830322 17.0296 0.830322L115.647 0.830322C120.007 0.830322 124.187 2.62363 127.27 5.81573C130.352 9.00784 132.084 13.3373 132.084 17.8516V119.979C132.084 124.493 130.352 128.823 127.27 132.015C124.187 135.207 120.007 137 115.647 137H17.0296C12.6704 137 8.48975 135.207 5.40734 132.015C2.32494 128.823 0.593262 124.493 0.593262 119.979V17.8516ZM70.4475 39.1282C70.4475 37.9996 70.0146 36.9172 69.244 36.1192C68.4734 35.3212 67.4283 34.8728 66.3385 34.8728C65.2487 34.8728 64.2035 35.3212 63.4329 36.1192C62.6623 36.9172 62.2294 37.9996 62.2294 39.1282V88.4303L44.5932 70.1579C43.8217 69.3589 42.7752 68.91 41.684 68.91C40.5928 68.91 39.5464 69.3589 38.7748 70.1579C38.0032 70.957 37.5697 72.0407 37.5697 73.1707C37.5697 74.3007 38.0032 75.3844 38.7748 76.1835L63.4292 101.715C63.8109 102.112 64.2644 102.426 64.7636 102.641C65.2628 102.855 65.798 102.966 66.3385 102.966C66.8789 102.966 67.4141 102.855 67.9133 102.641C68.4125 102.426 68.866 102.112 69.2477 101.715L93.9021 76.1835C94.6737 75.3844 95.1072 74.3007 95.1072 73.1707C95.1072 72.0407 94.6737 70.957 93.9021 70.1579C93.1306 69.3589 92.0841 68.91 90.9929 68.91C89.9017 68.91 88.8553 69.3589 88.0837 70.1579L70.4475 88.4303V39.1282Z" fill="#FCFCFC"/>
</svg>
