<svg width="128" height="167" viewBox="0 0 128 167" fill="none" xmlns="http://www.w3.org/2000/svg">
<path d="M115.277 0.830322H13.4891C10.1146 0.830322 6.87834 2.08051 4.49224 4.30587C2.10613 6.53122 0.765625 9.54945 0.765625 12.6966V54.2285H54.8402L33.3376 34.7085C32.2954 33.5735 31.7508 32.1135 31.8127 30.6202C31.8745 29.127 32.5382 27.7105 33.6712 26.6539C34.8042 25.5972 36.323 24.9782 37.9241 24.9205C39.5252 24.8628 41.0906 25.3708 42.3077 26.3428L79.142 60.6956L42.3077 95.0484C41.0906 96.0204 39.5252 96.5283 37.9241 96.4706C36.323 96.4129 34.8042 95.7939 33.6712 94.7372C32.5382 93.6806 31.8745 92.2641 31.8127 90.7709C31.7508 89.2777 32.2954 87.8177 33.3376 86.6826L54.8402 66.0947H0.765625V155.092C0.765625 158.239 2.10613 161.257 4.49224 163.482C6.87834 165.708 10.1146 166.958 13.4891 166.958H115.277C118.651 166.958 121.887 165.708 124.273 163.482C126.66 161.257 128 158.239 128 155.092V12.6966C128 9.54945 126.66 6.53122 124.273 4.30587C121.887 2.08051 118.651 0.830322 115.277 0.830322Z" fill="#FCFCFC"/>
</svg>
